<svg xmlns="http://www.w3.org/2000/svg" viewBox="0 0 96 96">
  <defs>
    <linearGradient id="faviconBg" x1="16" y1="12" x2="80" y2="86" gradientUnits="userSpaceOnUse">
      <stop stop-color="#DB9158" />
      <stop offset="1" stop-color="#C46D34" />
    </linearGradient>
  </defs>
  <rect x="12" y="12" width="72" height="72" rx="20" fill="url(#faviconBg)" />
  <path
    d="M57.3 31.3H38.7c-8.9 0-16 7.5-16 16.4V61c0 8.9 7.1 16.1 16 16.1H57c8.9 0 16-7.2 16-16.1V47.7c.3-8.9-6.8-16.4-15.7-16.4zM41.7 56.9c0 2.1-1.1 3-2.9 3-1.7 0-2.9-.9-2.9-3v-5.2c0-2 1.2-2.9 2.9-2.9 1.8 0 2.9.9 2.9 2.9v5.2zm16.5 2.6c-.6.9-1.4 1.4-2.3 1.4-.6 0-1.1-.3-1.4-.6l-3.7-2.9c-1.8-1.4-2-3.8-.9-5.5l.9-.9 3.7-2.9c1.2-.9 2.9-.6 3.5.6.9 1.1.6 2.9-.6 3.5l-2.6 2 2.6 2.1c1.1.6 1.4 2 .8 3.2zM78.5 29.2c0-.3-.3-.6-.6-.9l-2.3-1.2c-.6-.3-.9-.9-1.2-1.2L73 22.7c-.3-.6-.6-.9-.9-1.2-.9-.3-1.8 0-2 .9l-1.5 3.2c-.3.6-.6.9-1.2 1.2l-2.3 1.2c-.3 0-.6.3-.6.6-.3.3-.3.9 0 1.2 0 .3.3.6.6.9l2.3 1.2c.6.3.9.9 1.2 1.2l1.4 3.2.9.9h.6c.6 0 1.1-.3 1.5-.9l1.5-3.2c.3-.6.6-.9 1.2-1.2l2.3-1.2c.3 0 .6-.3.6-.6v-.9z"
    fill="#FFF8F0"
  />
</svg>
