<?xml version="1.0" standalone="no"?><!DOCTYPE svg PUBLIC "-//W3C//DTD SVG 1.1//EN" "http://www.w3.org/Graphics/SVG/1.1/DTD/svg11.dtd"><svg t="1777532867847" class="icon" viewBox="0 0 1024 1024" version="1.1" xmlns="http://www.w3.org/2000/svg" p-id="1965" xmlns:xlink="http://www.w3.org/1999/xlink" width="512" height="512"><path d="M741.925926 466.204444c-13.558519-29.297778-27.591111-59.638519-29.487407-104.106667-0.663704-15.54963-13.368889-27.780741-29.013333-27.780741-3.413333 0-6.731852 0.568889-9.955556 1.801481-32.426667 11.851852-56.699259 31.194074-72.154074 57.457778-5.12 8.722963-8.912593 17.540741-11.567407 25.979259-22.281481-47.691852-22.281481-103.727407-22.186667-180.717037 0-7.49037-2.939259-14.506667-8.343704-19.721481-5.12-5.025185-11.946667-7.774815-19.152593-7.774815-3.602963 0-7.205926 0.758519-10.619259 2.085926-66.56 27.780741-110.933333 75.662222-131.982222 142.317037-14.222222 45.226667-15.54963 91.117037-14.885926 128.568889-7.964444-19.342222-12.325926-39.063704-14.506667-51.674074-2.465185-13.842963-14.506667-23.893333-28.634074-23.893333-6.162963 0-12.041481 1.896296-16.971852 5.499259-21.333333 15.454815-38.968889 38.874074-51.01037 67.792593-10.524444 25.315556-16.308148 54.139259-16.308148 81.066667 0 66.74963 26.832593 129.422222 75.472593 176.545185 48.45037 46.933333 112.924444 72.817778 181.380741 72.817778 68.456296 0 132.93037-25.884444 181.380741-72.817778 48.64-47.122963 75.472593-109.795556 75.472593-176.545185C768.853333 524.231111 755.2 494.743704 741.925926 466.204444zM512 774.731852C391.300741 774.731852 293.072593 679.822222 293.072593 563.2c0-34.702222 12.8-80.971852 40.77037-108.847407 5.499259 24.082963 16.023704 57.647407 35.365926 83.721481 5.594074 7.49037 14.032593 11.757037 23.22963 11.757037 7.86963 0 15.454815-3.223704 20.954074-8.817778 5.404444-5.594074 8.343704-12.98963 8.154074-20.859259-0.094815-4.551111-0.284444-9.291852-0.379259-14.317037-2.275556-73.197037-5.878519-193.706667 108.468148-250.785185 0 42.192593 0.663704 79.36 6.068148 113.588148 6.921481 43.52 21.333333 78.032593 45.416296 108.562963 4.361481 5.499259 10.808889 8.628148 17.825185 8.628148 6.068148 0 12.041481-2.465185 16.308148-6.921481 4.266667-4.361481 6.542222-10.24 6.352593-16.402963-0.568889-18.678519 3.982222-62.672593 53.854815-86.376296 4.077037 45.226667 18.962963 77.179259 32.142222 105.718519 12.515556 27.117037 23.419259 50.536296 23.419259 81.066667C730.927407 679.822222 632.699259 774.731852 512 774.731852z" fill="#e89105" p-id="1966"></path></svg>