<svg width="64" height="64" viewBox="0 0 64 64" fill="none" xmlns="http://www.w3.org/2000/svg">
  <rect x="5" y="5" width="54" height="54" rx="16" fill="#FFF8EF" stroke="#E9B27F" stroke-width="2"/>
  <path d="M22 25.5C22 20.8 25.8 17 30.5 17H36.5C41.2 17 45 20.8 45 25.5C45 30.2 41.2 34 36.5 34H34V29.5H36.5C38.7 29.5 40.5 27.7 40.5 25.5C40.5 23.3 38.7 21.5 36.5 21.5H30.5C28.3 21.5 26.5 23.3 26.5 25.5V28H22V25.5Z" fill="#D57C3C"/>
  <path d="M19 38.5C19 33.8 22.8 30 27.5 30H30V34.5H27.5C25.3 34.5 23.5 36.3 23.5 38.5C23.5 40.7 25.3 42.5 27.5 42.5H33.5C35.7 42.5 37.5 40.7 37.5 38.5V36H42V38.5C42 43.2 38.2 47 33.5 47H27.5C22.8 47 19 43.2 19 38.5Z" fill="#9D6F4F"/>
  <rect x="29" y="29" width="6" height="6" rx="2" fill="#2F251F"/>
</svg>
