<?xml version="1.0" standalone="no"?><!DOCTYPE svg PUBLIC "-//W3C//DTD SVG 1.1//EN" "http://www.w3.org/Graphics/SVG/1.1/DTD/svg11.dtd"><svg t="1777533636565" class="icon" viewBox="0 0 1024 1024" version="1.1" xmlns="http://www.w3.org/2000/svg" p-id="16889" xmlns:xlink="http://www.w3.org/1999/xlink" width="512" height="512"><path d="M720.715 525.81c111.734 0 202.313 90.659 202.313 202.492 0 47.483-16.329 91.148-43.673 125.678l69.891 69.954c11.672 11.682 11.672 30.623 0 42.305-11.486 11.496-29.996 11.679-41.705 0.547l-0.562-0.547-71.26-71.322c-32.655 22.623-72.283 35.876-115.004 35.876-111.735 0-202.314-90.658-202.314-202.491 0-111.833 90.58-202.492 202.314-202.492zM752.9 61c62.85 0 113.92 50.485 114.935 113.15l0.016 1.902v238.923c0 16.52-13.381 29.914-29.887 29.914-16.27 0-29.505-13.013-29.88-29.208l-0.008-0.706V176.052c0-30.195-24.211-54.73-54.264-55.218l-0.912-0.007H168.95c-30.169 0-54.682 24.233-55.17 54.312l-0.007 0.913v648.893c0 30.195 24.212 54.73 54.264 55.218l0.913 0.007h302.962c16.506 0 29.887 13.393 29.887 29.914 0 16.285-13.001 29.53-29.181 29.913H168.95c-62.85 0-113.92-50.485-114.936-113.15L54 824.946V176.052c0-62.906 50.441-114.02 113.05-115.037l1.9-0.015H752.9z m-32.186 524.637c-78.722 0-142.54 63.873-142.54 142.665 0 78.791 63.818 142.664 142.54 142.664s142.539-63.873 142.539-142.664c0-78.792-63.817-142.665-142.54-142.665z m-231.1-59.888c16.505 0 29.886 13.393 29.886 29.914 0 16.284-13.001 29.53-29.181 29.905l-0.706 0.008H212.632c-16.506 0-29.887-13.393-29.887-29.913 0-16.285 13.001-29.53 29.182-29.906l0.705-0.008h276.982z m153.712-233.494c16.506 0 29.887 13.392 29.887 29.913 0 16.285-13.001 29.53-29.181 29.905l-0.706 0.009H212.632c-16.506 0-29.887-13.393-29.887-29.914 0-16.285 13.001-29.53 29.182-29.905l0.705-0.008h430.695z" fill="#e89105" p-id="16890"></path></svg>