<?xml version="1.0" standalone="no"?><!DOCTYPE svg PUBLIC "-//W3C//DTD SVG 1.1//EN" "http://www.w3.org/Graphics/SVG/1.1/DTD/svg11.dtd"><svg t="1777533495970" class="icon" viewBox="0 0 1024 1024" version="1.1" xmlns="http://www.w3.org/2000/svg" p-id="13267" xmlns:xlink="http://www.w3.org/1999/xlink" width="512" height="512"><path d="M847.82 896H144.806667a53.333333 53.333333 0 0 1-52.52-62.6L126.413333 640H85.333333a21.333333 21.333333 0 0 1 0-42.666667h48.613334l60.233333-341.333333H21.333333a21.333333 21.333333 0 0 1 0-42.666667h180.373334l7.286666-41.266666a53.26 53.26 0 0 1 52.52-44.066667h703.013334a53.333333 53.333333 0 0 1 52.52 62.6l-116.706667 661.333333a53.26 53.26 0 0 1-52.52 44.066667zM169.74 640l-35.433333 200.813333a10.666667 10.666667 0 0 0 10.5 12.52h703.013333a10.666667 10.666667 0 0 0 10.5-8.813333l112.386667-636.82-377.46 320.84a53.333333 53.333333 0 0 1-75.706667-6.733333L248.293333 194.866667 177.273333 597.333333H277.333333a21.333333 21.333333 0 0 1 0 42.666667z m113.893333-469.333333l266.84 324a10.666667 10.666667 0 0 0 15.14 1.333333l382.78-325.333333zM42.666667 810.666667H21.333333a21.333333 21.333333 0 0 1 0-42.666667h21.333334a21.333333 21.333333 0 0 1 0 42.666667z m64-341.333334H21.333333a21.333333 21.333333 0 0 1 0-42.666666h85.333334a21.333333 21.333333 0 0 1 0 42.666666z" fill="#e89105" p-id="13268"></path></svg>