<?xml version="1.0" standalone="no"?><!DOCTYPE svg PUBLIC "-//W3C//DTD SVG 1.1//EN" "http://www.w3.org/Graphics/SVG/1.1/DTD/svg11.dtd"><svg t="1777531571741" class="icon" viewBox="0 0 1024 1024" version="1.1" xmlns="http://www.w3.org/2000/svg" p-id="43832" xmlns:xlink="http://www.w3.org/1999/xlink" width="512" height="512"><path d="M296.106667 598.741333a1271.04 1271.04 0 0 0-25.856 76.032c40.96-29.696 89.642667-48.554667 145.834666-55.594666 107.221333-13.397333 202.496-84.224 250.709334-173.141334l-62.122667-62.08 60.288-60.373333 42.666667-42.752c18.346667-18.304 39.04-52.224 60.928-100.992-238.634667 36.992-384.768 183.082667-472.490667 418.901333zM725.333333 383.872l42.666667 42.666667c-42.666667 128-170.666667 256-341.333333 277.333333-113.877333 14.208-185.002667 92.458667-213.418667 234.666667H128c42.666667-256 128-853.333333 768-853.333334-42.666667 127.872-85.248 213.162667-127.872 255.872L725.333333 383.872z" fill="#e89105" p-id="43833"></path></svg>