<?xml version="1.0" standalone="no"?><!DOCTYPE svg PUBLIC "-//W3C//DTD SVG 1.1//EN" "http://www.w3.org/Graphics/SVG/1.1/DTD/svg11.dtd"><svg t="1778518448186" class="icon" viewBox="0 0 1024 1024" version="1.1" xmlns="http://www.w3.org/2000/svg" p-id="7590" xmlns:xlink="http://www.w3.org/1999/xlink" width="512" height="512"><path d="M469.312 618.688V704a256 256 0 0 0-256 256H128a341.312 341.312 0 0 1 341.312-341.312z m0-42.688c-141.44 0-256-114.56-256-256s114.56-256 256-256 256 114.56 256 256-114.56 256-256 256z m0-85.312a170.624 170.624 0 1 0 0-341.376 170.624 170.624 0 1 0 0 341.376z m110.72 333.312a149.76 149.76 0 0 1 0-69.248l-42.304-24.448 42.688-73.92 42.304 24.448a149.12 149.12 0 0 1 59.968-34.624v-48.896H768v48.896c22.72 6.72 43.2 18.752 59.968 34.624l42.304-24.448 42.688 73.92-42.368 24.448a149.76 149.76 0 0 1 0 69.184l42.368 24.448-42.688 73.92-42.304-24.448a149.12 149.12 0 0 1-59.968 34.624v48.832h-85.312v-48.832a149.12 149.12 0 0 1-59.968-34.624l-42.304 24.448-42.688-73.92 42.304-24.384z m145.28 29.312a64 64 0 1 0 0-128 64 64 0 0 0 0 128z" fill="#f59e0a" p-id="7591"></path></svg>